# AST/ASF file generated using VICON BodyLanguage
# -----------------------------------------------
:version 1.10
:name VICON
:units
  mass 1.0
  length 0.45
  angle deg
:documentation
   .ast/.asf automatically generated from VICON data using
   VICON BodyBuilder and BodyLanguage model FoxedUp or BRILLIANT.MOD
:root
   order TX TY TZ RX RY RZ
   axis XYZ
   position 0 0 0  
   orientation 0 0 0 
:bonedata
  begin
     id 1 
     name lhipjoint
     direction 0.693937 -0.600361 0.397515 
     length 2.37164 
     axis 0 0 0  XYZ
  end
  begin
     id 2 
     name lfemur
     direction 0.34202 -0.939693 0  
     length 6.18497  
     axis 0 0 20  XYZ
    dof rx ry rz
    limits (-160.0 20.0)
           (-70.0 70.0)
           (-60.0 70.0)
  end
  begin
     id 3 
     name ltibia
     direction 0.34202 -0.939693 0   
     length 6.91601   
     axis 0 0 20   XYZ
    dof rx
    limits (-10.0 170.0)
  end
  begin
     id 4 
     name lfoot
     direction 0.0978718 -0.2689 0.958182   
     length 1.81453   
     axis -90 7.62852e-016 20   XYZ
    dof rx rz
    limits (-45.0 90.0)
           (-70.0 20.0)
  end
  begin
     id 5 
     name ltoes
     direction 1.53569e-011 -4.21951e-011 1   
     length 0.912052   
     axis -90 7.62852e-016 20   XYZ
    dof rx
    limits (-90.0 20.0)
  end
  begin
     id 6 
     name rhipjoint
     direction -0.643996 -0.637876 0.422354   
     length 2.23216  
     axis 0 0 0  XYZ 
  end
  begin
     id 7 
     name rfemur
     direction -0.34202 -0.939693 0   
     length 6.15404   
     axis 0 0 -20   XYZ
    dof rx ry rz
    limits (-160.0 20.0)
           (-70.0 70.0)
           (-70.0 60.0)
  end
  begin
     id 8 
     name rtibia
     direction -0.34202 -0.939693 0   
     length 6.86744   
     axis 0 0 -20   XYZ
    dof rx
    limits (-10.0 170.0)
 end
 begin
     id 9 
     name rfoot
     direction -0.118701 -0.326127 0.937844   
     length 1.9243  
     axis -90 -7.62852e-016 -20   XYZ
    dof rx rz
    limits (-45.0 90.0)
           (-20.0 70.0)
  end
  begin
     id 10 
     name rtoes
     direction -1.5356e-011 -4.2181e-011 1   
     length 0.958865   
     axis -90 -7.62852e-016 -20   XYZ
    dof rx
    limits (-90.0 20.0)
  end
  begin
     id 11 
     name lowerback
     direction 0.0310826 0.968686 -0.246334   
     length 2.00021   
     axis 0 0 0   XYZ
    dof rx ry rz
    limits (-20.0 45.0)
           (-30.0 30.0)
           (-30.0 30.0)
  end
  begin
     id 12 
     name upperback
     direction -0.0152834 0.999474 -0.0286152   
     length 2.03728   
     axis 0 0 0   XYZ
    dof rx ry rz
    limits (-20.0 45.0)
           (-30.0 30.0)
           (-30.0 30.0)
  end
  begin
     id 13 
     name thorax
     direction -0.0323701 0.996236 0.0804149   
     length 2.16   
     axis 0 0 0   XYZ
    dof rx ry rz
    limits (-20.0 45.0)
           (-30.0 30.0)
           (-30.0 30.0)
  end
  begin
     id 14 
     name lowerneck
     direction 0.0307935 0.982251 0.185027   
     length 1.43558   
     axis 0 0 0   XYZ
    dof rx ry rz
    limits (-20.0 45.0)
           (-30.0 30.0)
           (-30.0 30.0)
  end
  begin
     id 15 
     name upperneck
     direction -0.0927153 0.994775 0.0427454   
     length 1.44603   
     axis 0 0 0   XYZ
    dof rx ry rz
    limits (-20.0 45.0)
           (-30.0 30.0)
           (-30.0 30.0)
  end
  begin
     id 16
     name head
     direction -0.0341265 0.999406 -0.00472033  
     length 1.45931  
     axis 0 0 0   XYZ
    dof rx ry rz
    limits (-20.0 45.0)
           (-30.0 30.0)
           (-30.0 30.0)
  end
  begin
     id 17 
     name lclavicle
     direction 0.820755 0.555306 -0.134151  
     length 2.66075  
     axis 0 0 0   XYZ
    dof ry rz
    limits (-20.0 10.0)
           (0.0 20.0)
  end
  begin
     id 18 
     name lhumerus
     direction 1 -4.48971e-011 5.24853e-027   
     length 5.0546   
     axis -180 -30 -90   XYZ
    dof rx ry rz
    limits (-60.0 90.0)
           (-90.0 90.0)
           (-90.0 90.0)
  end
  begin
     id 19
     name lradius
     direction 1 -4.48971e-011 2.76575e-028   
     length 3.39013   
     axis -180 -30 -90   XYZ
    dof rx
    limits (-10.0 170.0)
  end
  begin
     id 20
     name lwrist
     direction 1 -4.48939e-011 -2.27826e-027   
     length 1.69507   
     axis 2.17013e-015 90 90   XYZ
    dof ry
    limits (-180.0 0.0)
 end
  begin
     id 21 
     name lhand
     direction 1 -4.49009e-011 -4.55652e-027   
     length 0.572425   
     axis 2.90745e-015 90 90   XYZ
    dof rx rz
    limits (-90.0 90.0)
           (-45.0 45.0)
  end
  begin
     id 22 
     name lfingers
     direction 1 -4.48955e-011 -9.11303e-027   
     length 0.461504   
     axis 5.81489e-015 90 90   XYZ
    dof rx
    limits (0.0 90.0)
  end
  begin
     id 23
     name lthumb
     direction 0.707107 -6.34929e-011 0.707107   
     length 0.66263   
     axis -90 45 2.85299e-015   XYZ
    dof rx rz
    limits (-45.0 45.0)
           (-45.0 45.0)
  end
  begin
     id 24 
     name rclavicle
     direction -0.754477 0.632921 -0.173712   
     length 2.73081  
     axis 0 0 0   XYZ 
    dof ry rz
    limits (-10.0 20.0)
           (-20.0 0.0)
  end
  begin
     id 25 
     name rhumerus
     direction -1 -4.48969e-011 5.1496e-027  
     length 5.0701   
     axis -180 30 90   XYZ
    dof rx ry rz
    limits (-90.0 60.0)
           (-90.0 90.0)
           (-90.0 90.0)
  end
  begin
     id 26 
     name rradius
     direction -1 -4.48967e-011 -7.15624e-028   
     length 3.14957   
     axis -180 30 90   XYZ
    dof rx
    limits (-10.0 170.0)
  end
  begin
     id 27 
     name rwrist
     direction -1 -4.48938e-011 -2.27826e-027   
     length 1.57479   
     axis 2.17013e-015 -90 -90   XYZ
    dof ry
    limits (-180.0 0.0)
  end
  begin
     id 28
     name rhand
     direction -1 -4.49008e-011 -4.55652e-027   
     length 0.718191   
     axis 2.90745e-015 -90 -90   XYZ
    dof rx rz
    limits (-90.0 90.0)
           (-45.0 45.0)
  end
  begin
     id 29
     name rfingers
     direction -1 -4.48953e-011 -9.11303e-027   
     length 0.579024   
     axis 5.81489e-015 -90 -90   XYZ
    dof rx
    limits (0.0 90.0)
  end
  begin
     id 30
     name rthumb
     direction -0.707107 -6.34937e-011 0.707107   
     length 0.831366   
     axis -90 -45 -2.85299e-015   XYZ
    dof rx rz
    limits (-45.0 45.0)
           (-45.0 45.0)
  end
:hierarchy
  begin
    root lhipjoint rhipjoint lowerback
    lhipjoint lfemur
    lfemur ltibia
    ltibia lfoot
    lfoot ltoes
    rhipjoint rfemur
    rfemur rtibia
    rtibia rfoot
    rfoot rtoes
    lowerback upperback
    upperback thorax
    thorax lowerneck lclavicle rclavicle
    lowerneck upperneck
    upperneck head
    lclavicle lhumerus
    lhumerus lradius
    lradius lwrist
    lwrist lhand lthumb
    lhand lfingers
    rclavicle rhumerus
    rhumerus rradius
    rradius rwrist
    rwrist rhand rthumb
    rhand rfingers
  end

#!OML:ASF H:\Male1\Project 1\Capture day 1\Session 1\Male1.ASF
:FULLY-SPECIFIED
:DEGREES
1
root 16.8344 15.4259 -0.608571 170.089 -80.0346 -173.766
lowerback 4.95752 1.48071 -1.62738
upperback 2.51661 1.84322 -0.46869
thorax -0.228949 0.887089 0.3378
lowerneck -5.80745 -6.08441 0.233498
upperneck 5.32716 -8.31697 2.20836
head 2.79364 -4.06171 0.315221
rclavicle -3.04389e-014 1.47101e-014
rhumerus -33.9832 3.31044 -88.791
rradius 25.3536
rwrist 0.742496
rhand -18.3464 -2.66402
rfingers 7.12502
rthumb 7.93605 -32.495
lclavicle -3.04389e-014 1.47101e-014
lhumerus -36.5222 4.5224 80.9558
lradius 30.2041
lwrist -2.87405
lhand -15.6868 10.2618
lfingers 7.12502
lthumb 10.5023 39.9794
rfemur 0.209835 16.6112 25.0616
rtibia 21.0422
rfoot -33.1088 -31.7289
rtoes -9.74307
lfemur 0.188881 -16.1843 -20.9932
ltibia 23.8566
lfoot -27.7761 29.2305
ltoes 1.215
2
root 16.8356 15.43 -0.608301 171.218 -80.1949 -174.774
lowerback 4.89408 1.50209 -1.77724
upperback 2.45529 1.86627 -0.571798
thorax -0.258235 0.898924 0.315485
lowerneck -5.93504 -6.03074 0.392652
upperneck 5.36787 -8.25997 2.18613
head 2.82193 -4.02943 0.279088
rclavicle -5.61567e-015 -7.95139e-016
rhumerus -33.9831 3.29449 -88.9101
rradius 25.7763
rwrist -3.00135
rhand -17.9652 -2.10425
rfingers 7.12502
rthumb 8.30391 -31.921
lclavicle -5.61567e-015 -7.95139e-016
lhumerus -36.5693 4.40037 80.9308
lradius 30.2977
lwrist -2.90414
lhand -16.0585 9.86979
lfingers 7.12502
lthumb 10.1437 39.6053
rfemur 0.0214014 16.439 24.7825
rtibia 21.0998
rfoot -33.0355 -31.7515
rtoes -10.3347
lfemur 0.0890637 -16.4407 -21.2098
ltibia 23.7145
lfoot -27.5232 29.5275
ltoes 0.817062
3
root 16.8366 15.4345 -0.606973 171.367 -80.3353 -174.789
lowerback 4.79156 1.50443 -1.73392
upperback 2.43239 1.87391 -0.632629
thorax -0.221422 0.903685 0.230996
lowerneck -5.96634 -5.97178 0.557709
upperneck 5.28284 -8.18872 2.12912
head 2.78755 -3.9935 0.237469
rclavicle 7.30534e-015 1.19271e-014
rhumerus -33.9383 3.29967 -89.0111
rradius 26.2487
rwrist -6.7536
rhand -17.5115 -1.62714
rfingers 7.12502
rthumb 8.7418 -31.4261
lclavicle 7.30534e-015 1.19271e-014
lhumerus -36.4892 4.16635 80.9573
lradius 30.2845
lwrist -2.79672
lhand -16.5053 9.55394
lfingers 7.12502
lthumb 9.71269 39.31
rfemur -0.074129 16.326 24.6985
rtibia 20.9982
rfoot -33.0292 -31.7503
rtoes -10.3233
lfemur -0.0983881 -16.5219 -21.1948
ltibia 23.7225
lfoot -27.3833 29.5616
ltoes 0.517803
4
root 16.8369 15.438 -0.605903 170.374 -80.3774 -173.7
lowerback 4.71184 1.48463 -1.5277
upperback 2.45256 1.8591 -0.599061
thorax -0.150804 0.897583 0.153339
lowerneck -6.11342 -5.86326 0.659152
upperneck 5.25646 -8.04448 2.01495
head 2.79456 -3.92236 0.186352
rclavicle 1.86361e-015 -1.03368e-014
rhumerus -34.047 4.46719 -89.7726
rradius 27.0407
rwrist -10.2216
rhand -17.0585 -1.13176
rfingers 7.12502
rthumb 9.17894 -30.912
lclavicle 1.86361e-015 -1.03368e-014
lhumerus -36.3137 3.97258 81.0514
lradius 30.1746
lwrist -2.58231
lhand -16.9085 9.29758
lfingers 7.12502
lthumb 9.32364 39.0714
rfemur -0.173853 16.393 24.8731
rtibia 21.0206
rfoot -33.1925 -31.7791
rtoes -10.0841
lfemur -0.168381 -16.525 -20.9631
ltibia 23.62
lfoot -27.235 29.5332
ltoes 0.26712
5
root 16.8382 15.4402 -0.603417 170.98 -80.517 -174.218
lowerback 4.62502 1.45453 -1.61662
upperback 2.46199 1.81739 -0.624836
thorax -0.0940505 0.875747 0.181132
lowerneck -6.32187 -5.75906 0.703322
upperneck 5.36142 -7.91117 1.96569
head 2.86398 -3.85351 0.160126
rclavicle -1.3418e-015 3.97569e-016
rhumerus -34.4369 6.61277 -91.184
rradius 28.41
rwrist -13.3255
rhand -16.6508 -0.55694
rfingers 7.12502
rthumb 9.57226 -30.3195
lclavicle -1.3418e-015 3.97569e-016
lhumerus -36.1918 3.88771 81.1398
lradius 30.2161
lwrist -2.52031
lhand -17.2763 9.19335
lfingers 7.12502
lthumb 8.9687 38.9827
rfemur -0.311292 16.2817 24.7046
rtibia 21.0956
rfoot -33.3299 -31.67
rtoes -9.78027
lfemur -0.240188 -16.5914 -21.0504
ltibia 23.4858
lfoot -27.0556 29.4763
ltoes 0.30155
